<?xml version="1.0" encoding="utf-8"?>
<!-- Generator: Adobe Illustrator 21.1.0, SVG Export Plug-In . SVG Version: 6.00 Build 0)  -->
<svg version="1.1" id="Layer_1" xmlns="http://www.w3.org/2000/svg" xmlns:xlink="http://www.w3.org/1999/xlink" x="0px" y="0px"
	 viewBox="0 0 93.9 93.9" style="enable-background:new 0 0 93.9 93.9;" xml:space="preserve">
<g>
	<path d="M68.9,42.9H50.9V25c0-2.2-1.8-4-4-4s-4,1.8-4,4v17.9H25c-2.2,0-4,1.8-4,4s1.8,4,4,4h17.9v17.9c0,2.2,1.8,4,4,4s4-1.8,4-4
		V50.9h17.9c2.2,0,4-1.8,4-4S71.1,42.9,68.9,42.9z"/>
	<path d="M46.9,0C21.1,0,0,21.1,0,46.9c0,25.9,21.1,46.9,46.9,46.9s46.9-21.1,46.9-46.9C93.9,21.1,72.8,0,46.9,0z M46.9,88
		C24.3,88,5.9,69.6,5.9,46.9c0-22.6,18.4-41.1,41.1-41.1C69.6,5.9,88,24.3,88,46.9C88,69.6,69.6,88,46.9,88z"/>
</g>
</svg>
