<?xml version="1.0" encoding="utf-8"?>
<!-- Generator: Adobe Illustrator 21.1.0, SVG Export Plug-In . SVG Version: 6.00 Build 0)  -->
<svg version="1.1" id="Layer_1" xmlns="http://www.w3.org/2000/svg" xmlns:xlink="http://www.w3.org/1999/xlink" x="0px" y="0px"
	 viewBox="0 0 81.7 83.2" style="enable-background:new 0 0 81.7 83.2;" xml:space="preserve">
<path d="M71.9,7.5H59V3.8C59,1.7,57.3,0,55.2,0c-1.9,0-3.4,1.4-3.7,3.2c0,0.2-0.1,0.4-0.1,0.6v3.7H28.8V3.8C28.8,1.7,27.1,0,25,0
	c-1.9,0-3.4,1.4-3.7,3.2c0,0.2-0.1,0.4-0.1,0.6v3.7h-9.8C5.4,7.5,0,12.5,0,18.2v54.5c0,5.6,5.2,10.6,11.4,10.6h60.5
	c5.7,0,9.8-4.5,9.8-10.6V18.2C81.7,12,77.5,7.5,71.9,7.5z M75.7,72.6c0,2.1-1,4.5-3.8,4.5H11.4c-2.5,0-5.3-2-5.3-4.5V39.3h69.6V72.6
	z M75.7,33.2H6.1V18.2c0-2.4,2.7-4.6,5.3-4.6h9.8v5.3c0,0.2,0,0.4,0.1,0.6c0.3,1.8,1.8,3.2,3.7,3.2c2.1,0,3.8-1.7,3.8-3.8v-5.3h22.7
	v5.3c0,0.2,0,0.4,0.1,0.6c0.3,1.8,1.8,3.2,3.7,3.2c2.1,0,3.8-1.7,3.8-3.8v-5.3h12.9c2.6,0,3.8,2.3,3.8,4.6
	C75.7,18.2,75.7,33.2,75.7,33.2z"/>
</svg>
