<?xml version="1.0" encoding="utf-8"?>
<!-- Generator: Adobe Illustrator 21.1.0, SVG Export Plug-In . SVG Version: 6.00 Build 0)  -->
<svg version="1.1" id="Layer_1" xmlns="http://www.w3.org/2000/svg" xmlns:xlink="http://www.w3.org/1999/xlink" x="0px" y="0px"
	 viewBox="0 0 75 75" style="enable-background:new 0 0 75 75;" xml:space="preserve">
<g>
	<path d="M73.2,1.7c-2.3-2.3-6.1-2.3-8.5,0L37.5,28.9L10.2,1.7c-2.3-2.3-6.1-2.3-8.5,0c-2.3,2.3-2.3,6.1,0,8.5L29,37.4L1.8,64.7
		c-2.3,2.3-2.3,6.1,0,8.5C3,74.4,4.5,75,6,75s3.1-0.6,4.2-1.8l27.3-27.3l27.3,27.3C66,74.4,67.5,75,69,75s3.1-0.6,4.2-1.8
		c2.3-2.3,2.3-6.1,0-8.5L46,37.4l27.3-27.3C75.6,7.8,75.6,4,73.2,1.7z"/>
</g>
</svg>
