<?xml version="1.0" encoding="utf-8"?>
<!-- Generator: Adobe Illustrator 21.1.0, SVG Export Plug-In . SVG Version: 6.00 Build 0)  -->
<svg version="1.1" id="Layer_1" xmlns="http://www.w3.org/2000/svg" xmlns:xlink="http://www.w3.org/1999/xlink" x="0px" y="0px"
	 viewBox="0 0 53.6 53.6" style="enable-background:new 0 0 53.6 53.6;" xml:space="preserve">
<title>60 all</title>
<g>
	<path d="M20.8,0H13C5.8,0,0,5.8,0,13v27.6c0,7.2,5.8,13,13,13l0,0h27.6c7.2,0,13-5.8,13-13l0,0v-7.8c0-1.7-1.3-3-3-3s-3,1.3-3,3
		v7.8c0,3.9-3.1,7-7,7l0,0H13c-3.9,0-7-3.1-7-7V13c0-3.9,3.1-7,7-7h7.8c1.7,0,3-1.3,3-3S22.5,0,20.8,0z"/>
	<path d="M18.1,24.6l-2.8,10c-0.5,1.6,0.5,3.2,2,3.7c0.5,0.1,1.1,0.1,1.6,0l10-2.8c0.5-0.1,1-0.3,1.3-0.7l20.4-20.5
		c3.1-3.2,3-8.4-0.3-11.5c-3.1-3-8.1-3-11.2,0L18.8,23.3C18.4,23.6,18.2,24.1,18.1,24.6z M43.5,7.1c0.8-0.8,2.2-0.8,3,0s0.8,2.2,0,3
		L28.3,28.3l-3-3L43.5,7.1z M22.5,31L22.5,31L22.5,31L22.5,31z"/>
</g>
</svg>
