<?xml version="1.0" encoding="utf-8"?>
<!-- Generator: Adobe Illustrator 21.1.0, SVG Export Plug-In . SVG Version: 6.00 Build 0)  -->
<svg version="1.1" id="Layer_1" xmlns="http://www.w3.org/2000/svg" xmlns:xlink="http://www.w3.org/1999/xlink" x="0px" y="0px"
	 viewBox="0 0 88 90" style="enable-background:new 0 0 88 90;" xml:space="preserve">
<g>
	<path d="M77.8,38.2c-1.5,0-2.8,1.2-2.8,2.8v38.8c0,2.5-2.1,4.6-4.6,4.6H10.2c-2.5,0-4.6-2.1-4.6-4.6V19.6c0-2.5,2.1-4.6,4.6-4.6
		h47.9c1.5,0,2.8-1.2,2.8-2.8s-1.2-2.8-2.8-2.8H10.2C4.6,9.4,0,14,0,19.6v60.3C0,85.4,4.6,90,10.2,90h60.3c5.6,0,10.2-4.6,10.2-10.2
		V41C80.6,39.5,79.4,38.2,77.8,38.2z"/>
	<path d="M85.6,1.2c-2.7-2-6.4-1.4-8.4,1.2L37,56.6L24.9,45.7c-2.5-2.2-6.3-2-8.5,0.4c-2.2,2.5-2,6.3,0.4,8.5l16.3,14.7
		c1.3,1.1,2.9,1.8,4.6,1.8c0.2,0,0.4,0,0.5,0c1.9-0.2,3.6-1.1,4.8-2.5c0-0.1,0.1-0.1,0.1-0.2L86.8,9.6C88.8,6.9,88.3,3.2,85.6,1.2z"
		/>
</g>
</svg>
